<svg id="visual" viewBox="0 0 900 600" width="900" height="600" xmlns="http://www.w3.org/2000/svg" xmlns:xlink="http://www.w3.org/1999/xlink" version="1.1"><rect x="0" y="0" width="900" height="600" fill="#c6b1b1"></rect><path d="M0 362L25 360.7C50 359.3 100 356.7 150 368C200 379.3 250 404.7 300 403.8C350 403 400 376 450 374.3C500 372.7 550 396.3 600 409.7C650 423 700 426 750 425.8C800 425.7 850 422.3 875 420.7L900 419L900 0L875 0C850 0 800 0 750 0C700 0 650 0 600 0C550 0 500 0 450 0C400 0 350 0 300 0C250 0 200 0 150 0C100 0 50 0 25 0L0 0Z" fill="#975781"></path><path d="M0 258L25 266.3C50 274.7 100 291.3 150 299.8C200 308.3 250 308.7 300 298.8C350 289 400 269 450 260.2C500 251.3 550 253.7 600 266.5C650 279.3 700 302.7 750 308.3C800 314 850 302 875 296L900 290L900 0L875 0C850 0 800 0 750 0C700 0 650 0 600 0C550 0 500 0 450 0C400 0 350 0 300 0C250 0 200 0 150 0C100 0 50 0 25 0L0 0Z" fill="#af5982"></path><path d="M0 245L25 253.5C50 262 100 279 150 283.3C200 287.7 250 279.3 300 272.5C350 265.7 400 260.3 450 249C500 237.7 550 220.3 600 224.5C650 228.7 700 254.3 750 263.3C800 272.3 850 264.7 875 260.8L900 257L900 0L875 0C850 0 800 0 750 0C700 0 650 0 600 0C550 0 500 0 450 0C400 0 350 0 300 0C250 0 200 0 150 0C100 0 50 0 25 0L0 0Z" fill="#c75b80"></path><path d="M0 157L25 170.8C50 184.7 100 212.3 150 213.2C200 214 250 188 300 173.5C350 159 400 156 450 158.2C500 160.3 550 167.7 600 175.2C650 182.7 700 190.3 750 184.3C800 178.3 850 158.7 875 148.8L900 139L900 0L875 0C850 0 800 0 750 0C700 0 650 0 600 0C550 0 500 0 450 0C400 0 350 0 300 0C250 0 200 0 150 0C100 0 50 0 25 0L0 0Z" fill="#dd5f79"></path><path d="M0 169L25 160.2C50 151.3 100 133.7 150 135.3C200 137 250 158 300 169C350 180 400 181 450 178.8C500 176.7 550 171.3 600 161.2C650 151 700 136 750 136.2C800 136.3 850 151.7 875 159.3L900 167L900 0L875 0C850 0 800 0 750 0C700 0 650 0 600 0C550 0 500 0 450 0C400 0 350 0 300 0C250 0 200 0 150 0C100 0 50 0 25 0L0 0Z" fill="#f0656f"></path><path d="M0 56L25 56.7C50 57.3 100 58.7 150 53.7C200 48.7 250 37.3 300 35.3C350 33.3 400 40.7 450 49.7C500 58.7 550 69.3 600 66.7C650 64 700 48 750 50.5C800 53 850 74 875 84.5L900 95L900 0L875 0C850 0 800 0 750 0C700 0 650 0 600 0C550 0 500 0 450 0C400 0 350 0 300 0C250 0 200 0 150 0C100 0 50 0 25 0L0 0Z" fill="#ff6f61"></path></svg>