<svg id="visual" viewBox="0 0 1920 1080" width="1920" height="1080" xmlns="http://www.w3.org/2000/svg" xmlns:xlink="http://www.w3.org/1999/xlink" version="1.1"><rect x="0" y="0" width="1920" height="1080" fill="#c3b2b1"></rect><path d="M0 632L35.5 622.7C71 613.3 142 594.7 213.2 588.7C284.3 582.7 355.7 589.3 426.8 609.2C498 629 569 662 640 697.3C711 732.7 782 770.3 853.2 761C924.3 751.7 995.7 695.3 1066.8 679C1138 662.7 1209 686.3 1280 690C1351 693.7 1422 677.3 1493.2 676.7C1564.3 676 1635.7 691 1706.8 717C1778 743 1849 780 1884.5 798.5L1920 817L1920 1081L1884.5 1081C1849 1081 1778 1081 1706.8 1081C1635.7 1081 1564.3 1081 1493.2 1081C1422 1081 1351 1081 1280 1081C1209 1081 1138 1081 1066.8 1081C995.7 1081 924.3 1081 853.2 1081C782 1081 711 1081 640 1081C569 1081 498 1081 426.8 1081C355.7 1081 284.3 1081 213.2 1081C142 1081 71 1081 35.5 1081L0 1081Z" fill="#521787"></path><path d="M0 859L35.5 835.2C71 811.3 142 763.7 213.2 737.3C284.3 711 355.7 706 426.8 727.5C498 749 569 797 640 788.5C711 780 782 715 853.2 710C924.3 705 995.7 760 1066.8 758.8C1138 757.7 1209 700.3 1280 681.2C1351 662 1422 681 1493.2 702.7C1564.3 724.3 1635.7 748.7 1706.8 753.5C1778 758.3 1849 743.7 1884.5 736.3L1920 729L1920 1081L1884.5 1081C1849 1081 1778 1081 1706.8 1081C1635.7 1081 1564.3 1081 1493.2 1081C1422 1081 1351 1081 1280 1081C1209 1081 1138 1081 1066.8 1081C995.7 1081 924.3 1081 853.2 1081C782 1081 711 1081 640 1081C569 1081 498 1081 426.8 1081C355.7 1081 284.3 1081 213.2 1081C142 1081 71 1081 35.5 1081L0 1081Z" fill="#791981"></path><path d="M0 845L35.5 828.7C71 812.3 142 779.7 213.2 763.3C284.3 747 355.7 747 426.8 748.7C498 750.3 569 753.7 640 780C711 806.3 782 855.7 853.2 875C924.3 894.3 995.7 883.7 1066.8 865.7C1138 847.7 1209 822.3 1280 795C1351 767.7 1422 738.3 1493.2 754.2C1564.3 770 1635.7 831 1706.8 844C1778 857 1849 822 1884.5 804.5L1920 787L1920 1081L1884.5 1081C1849 1081 1778 1081 1706.8 1081C1635.7 1081 1564.3 1081 1493.2 1081C1422 1081 1351 1081 1280 1081C1209 1081 1138 1081 1066.8 1081C995.7 1081 924.3 1081 853.2 1081C782 1081 711 1081 640 1081C569 1081 498 1081 426.8 1081C355.7 1081 284.3 1081 213.2 1081C142 1081 71 1081 35.5 1081L0 1081Z" fill="#96267c"></path><path d="M0 903L35.5 909.3C71 915.7 142 928.3 213.2 923.5C284.3 918.7 355.7 896.3 426.8 884.3C498 872.3 569 870.7 640 881C711 891.3 782 913.7 853.2 920.8C924.3 928 995.7 920 1066.8 910.7C1138 901.3 1209 890.7 1280 888.5C1351 886.3 1422 892.7 1493.2 887C1564.3 881.3 1635.7 863.7 1706.8 857.3C1778 851 1849 856 1884.5 858.5L1920 861L1920 1081L1884.5 1081C1849 1081 1778 1081 1706.8 1081C1635.7 1081 1564.3 1081 1493.2 1081C1422 1081 1351 1081 1280 1081C1209 1081 1138 1081 1066.8 1081C995.7 1081 924.3 1081 853.2 1081C782 1081 711 1081 640 1081C569 1081 498 1081 426.8 1081C355.7 1081 284.3 1081 213.2 1081C142 1081 71 1081 35.5 1081L0 1081Z" fill="#ad3877"></path><path d="M0 978L35.5 957.7C71 937.3 142 896.7 213.2 893.7C284.3 890.7 355.7 925.3 426.8 924.3C498 923.3 569 886.7 640 876.2C711 865.7 782 881.3 853.2 893.2C924.3 905 995.7 913 1066.8 903.7C1138 894.3 1209 867.7 1280 868C1351 868.3 1422 895.7 1493.2 905.3C1564.3 915 1635.7 907 1706.8 901.5C1778 896 1849 893 1884.5 891.5L1920 890L1920 1081L1884.5 1081C1849 1081 1778 1081 1706.8 1081C1635.7 1081 1564.3 1081 1493.2 1081C1422 1081 1351 1081 1280 1081C1209 1081 1138 1081 1066.8 1081C995.7 1081 924.3 1081 853.2 1081C782 1081 711 1081 640 1081C569 1081 498 1081 426.8 1081C355.7 1081 284.3 1081 213.2 1081C142 1081 71 1081 35.5 1081L0 1081Z" fill="#bf4d74"></path><path d="M0 989L35.5 981.8C71 974.7 142 960.3 213.2 961C284.3 961.7 355.7 977.3 426.8 978.3C498 979.3 569 965.7 640 956.7C711 947.7 782 943.3 853.2 954.2C924.3 965 995.7 991 1066.8 994.7C1138 998.3 1209 979.7 1280 967.7C1351 955.7 1422 950.3 1493.2 948.5C1564.3 946.7 1635.7 948.3 1706.8 950C1778 951.7 1849 953.3 1884.5 954.2L1920 955L1920 1081L1884.5 1081C1849 1081 1778 1081 1706.8 1081C1635.7 1081 1564.3 1081 1493.2 1081C1422 1081 1351 1081 1280 1081C1209 1081 1138 1081 1066.8 1081C995.7 1081 924.3 1081 853.2 1081C782 1081 711 1081 640 1081C569 1081 498 1081 426.8 1081C355.7 1081 284.3 1081 213.2 1081C142 1081 71 1081 35.5 1081L0 1081Z" fill="#cc6474"></path><path d="M0 989L35.5 998C71 1007 142 1025 213.2 1033.2C284.3 1041.3 355.7 1039.7 426.8 1034.7C498 1029.7 569 1021.3 640 1024.7C711 1028 782 1043 853.2 1046.3C924.3 1049.7 995.7 1041.3 1066.8 1041.3C1138 1041.3 1209 1049.7 1280 1038C1351 1026.3 1422 994.7 1493.2 984.2C1564.3 973.7 1635.7 984.3 1706.8 997.3C1778 1010.3 1849 1025.7 1884.5 1033.3L1920 1041L1920 1081L1884.5 1081C1849 1081 1778 1081 1706.8 1081C1635.7 1081 1564.3 1081 1493.2 1081C1422 1081 1351 1081 1280 1081C1209 1081 1138 1081 1066.8 1081C995.7 1081 924.3 1081 853.2 1081C782 1081 711 1081 640 1081C569 1081 498 1081 426.8 1081C355.7 1081 284.3 1081 213.2 1081C142 1081 71 1081 35.5 1081L0 1081Z" fill="#d67b78"></path></svg>