<svg id="visual" viewBox="0 0 900 600" width="900" height="600" xmlns="http://www.w3.org/2000/svg" xmlns:xlink="http://www.w3.org/1999/xlink" version="1.1"><rect x="0" y="0" width="900" height="600" fill="#ca7f7b"></rect><defs><linearGradient id="grad1_0" x1="33.3%" y1="0%" x2="100%" y2="100%"><stop offset="20%" stop-color="#4b1b82" stop-opacity="1"></stop><stop offset="80%" stop-color="#4b1b82" stop-opacity="1"></stop></linearGradient></defs><defs><linearGradient id="grad1_1" x1="33.3%" y1="0%" x2="100%" y2="100%"><stop offset="20%" stop-color="#4b1b82" stop-opacity="1"></stop><stop offset="80%" stop-color="#8f2c77" stop-opacity="1"></stop></linearGradient></defs><defs><linearGradient id="grad1_2" x1="33.3%" y1="0%" x2="100%" y2="100%"><stop offset="20%" stop-color="#b45372" stop-opacity="1"></stop><stop offset="80%" stop-color="#8f2c77" stop-opacity="1"></stop></linearGradient></defs><defs><linearGradient id="grad1_3" x1="33.3%" y1="0%" x2="100%" y2="100%"><stop offset="20%" stop-color="#b45372" stop-opacity="1"></stop><stop offset="80%" stop-color="#ca7f7b" stop-opacity="1"></stop></linearGradient></defs><defs><linearGradient id="grad2_0" x1="0%" y1="0%" x2="66.7%" y2="100%"><stop offset="20%" stop-color="#4b1b82" stop-opacity="1"></stop><stop offset="80%" stop-color="#4b1b82" stop-opacity="1"></stop></linearGradient></defs><defs><linearGradient id="grad2_1" x1="0%" y1="0%" x2="66.7%" y2="100%"><stop offset="20%" stop-color="#8f2c77" stop-opacity="1"></stop><stop offset="80%" stop-color="#4b1b82" stop-opacity="1"></stop></linearGradient></defs><defs><linearGradient id="grad2_2" x1="0%" y1="0%" x2="66.7%" y2="100%"><stop offset="20%" stop-color="#8f2c77" stop-opacity="1"></stop><stop offset="80%" stop-color="#b45372" stop-opacity="1"></stop></linearGradient></defs><defs><linearGradient id="grad2_3" x1="0%" y1="0%" x2="66.7%" y2="100%"><stop offset="20%" stop-color="#ca7f7b" stop-opacity="1"></stop><stop offset="80%" stop-color="#b45372" stop-opacity="1"></stop></linearGradient></defs><g transform="translate(900, 0)"><path d="M0 405.6C-30.4 377.4 -60.8 349.2 -89.3 333.2C-117.8 317.3 -144.5 313.7 -179 310C-213.5 306.3 -255.7 302.5 -282.8 282.8C-310 263.1 -322 227.5 -339.5 196C-357 164.5 -379.9 137 -391.8 105C-403.7 73 -404.7 36.5 -405.6 0L0 0Z" fill="#c16974"></path><path d="M0 304.2C-22.8 283 -45.6 261.9 -67 249.9C-88.4 238 -108.4 235.3 -134.2 232.5C-160.1 229.8 -191.8 226.9 -212.1 212.1C-232.5 197.4 -241.5 170.7 -254.6 147C-267.7 123.3 -284.9 102.7 -293.9 78.7C-302.8 54.7 -303.5 27.4 -304.2 0L0 0Z" fill="#a43e74"></path><path d="M0 202.8C-15.2 188.7 -30.4 174.6 -44.6 166.6C-58.9 158.7 -72.3 156.9 -89.5 155C-106.7 153.2 -127.9 151.3 -141.4 141.4C-155 131.6 -161 113.8 -169.7 98C-178.5 82.2 -189.9 68.5 -195.9 52.5C-201.9 36.5 -202.3 18.2 -202.8 0L0 0Z" fill="#721f7d"></path><path d="M0 101.4C-7.6 94.3 -15.2 87.3 -22.3 83.3C-29.5 79.3 -36.1 78.4 -44.7 77.5C-53.4 76.6 -63.9 75.6 -70.7 70.7C-77.5 65.8 -80.5 56.9 -84.9 49C-89.2 41.1 -95 34.2 -98 26.2C-100.9 18.2 -101.2 9.1 -101.4 0L0 0Z" fill="#4b1b82"></path></g><g transform="translate(0, 600)"><path d="M0 -405.6C35 -402.5 70 -399.3 105 -391.8C139.9 -384.3 174.9 -372.5 201.5 -349C228.1 -325.5 246.5 -290.2 257.4 -257.4C268.3 -224.6 271.6 -194.3 296.2 -171C320.7 -147.7 366.5 -131.4 388.3 -104C410.1 -76.7 407.9 -38.4 405.6 0L0 0Z" fill="#c16974"></path><path d="M0 -304.2C26.3 -301.8 52.5 -299.5 78.7 -293.9C105 -288.2 131.1 -279.4 151.1 -261.8C171.1 -244.1 184.9 -217.6 193 -193C201.2 -168.4 203.7 -145.7 222.1 -128.3C240.6 -110.8 274.9 -98.5 291.2 -78C307.6 -57.5 305.9 -28.8 304.2 0L0 0Z" fill="#a43e74"></path><path d="M0 -202.8C17.5 -201.2 35 -199.6 52.5 -195.9C70 -192.2 87.4 -186.3 100.7 -174.5C114.1 -162.7 123.3 -145.1 128.7 -128.7C134.1 -112.3 135.8 -97.2 148.1 -85.5C160.4 -73.8 183.3 -65.7 194.2 -52C205 -38.4 203.9 -19.2 202.8 0L0 0Z" fill="#721f7d"></path><path d="M0 -101.4C8.8 -100.6 17.5 -99.8 26.2 -98C35 -96.1 43.7 -93.1 50.4 -87.3C57 -81.4 61.6 -72.5 64.3 -64.3C67.1 -56.1 67.9 -48.6 74 -42.8C80.2 -36.9 91.6 -32.8 97.1 -26C102.5 -19.2 102 -9.6 101.4 0L0 0Z" fill="#4b1b82"></path></g></svg>